# AST/ASF file generated using VICON BodyLanguage
# -----------------------------------------------
:version 1.10
:name VICON
:units
  mass 1.0
  length 0.45
  angle deg
:documentation
   .ast/.asf automatically generated from VICON data using
   VICON BodyBuilder and BodyLanguage model FoxedUp or BRILLIANT.MOD
:root
   order TX TY TZ RX RY RZ
   axis XYZ
   position 0 0 0  
   orientation 0 0 0 
:bonedata
  begin
     id 1 
     name lhipjoint
     direction 0.62366 -0.717238 0.310833 
     length 2.53602 
     axis 0 0 0  XYZ
  end
  begin
     id 2 
     name lfemur
     direction 0.34202 -0.939693 0  
     length 7.40817  
     axis 0 0 20  XYZ
    dof rx ry rz
    limits (-160.0 20.0)
           (-70.0 70.0)
           (-60.0 70.0)
  end
  begin
     id 3 
     name ltibia
     direction 0.34202 -0.939693 0   
     length 7.7045   
     axis 0 0 20   XYZ
    dof rx
    limits (-10.0 170.0)
  end
  begin
     id 4 
     name lfoot
     direction 0.0673888 -0.185149 0.980397   
     length 2.09456   
     axis -90 7.62852e-016 20   XYZ
    dof rx rz
    limits (-45.0 90.0)
           (-70.0 20.0)
  end
  begin
     id 5 
     name ltoes
     direction 1.53575e-011 -4.21994e-011 1   
     length 1.05543   
     axis -90 7.62852e-016 20   XYZ
    dof rx
    limits (-90.0 20.0)
  end
  begin
     id 6 
     name rhipjoint
     direction -0.489018 -0.800347 0.346851   
     length 2.27268  
     axis 0 0 0  XYZ 
  end
  begin
     id 7 
     name rfemur
     direction -0.34202 -0.939693 0   
     length 7.55487   
     axis 0 0 -20   XYZ
    dof rx ry rz
    limits (-160.0 20.0)
           (-70.0 70.0)
           (-70.0 60.0)
  end
  begin
     id 8 
     name rtibia
     direction -0.34202 -0.939693 0   
     length 7.78969   
     axis 0 0 -20   XYZ
    dof rx
    limits (-10.0 170.0)
 end
 begin
     id 9 
     name rfoot
     direction -0.0859318 -0.236096 0.967923   
     length 2.19143  
     axis -90 -7.62852e-016 -20   XYZ
    dof rx rz
    limits (-45.0 90.0)
           (-20.0 70.0)
  end
  begin
     id 10 
     name rtoes
     direction -1.53538e-011 -4.21989e-011 1   
     length 1.09845   
     axis -90 -7.62852e-016 -20   XYZ
    dof rx
    limits (-90.0 20.0)
  end
  begin
     id 11 
     name lowerback
     direction -0.00762546 0.998978 -0.0445553   
     length 1.98161   
     axis 0 0 0   XYZ
    dof rx ry rz
    limits (-20.0 45.0)
           (-30.0 30.0)
           (-30.0 30.0)
  end
  begin
     id 12 
     name upperback
     direction 0.0422361 0.998867 -0.0219156   
     length 1.97558   
     axis 0 0 0   XYZ
    dof rx ry rz
    limits (-20.0 45.0)
           (-30.0 30.0)
           (-30.0 30.0)
  end
  begin
     id 13 
     name thorax
     direction 0.0442465 0.999021 7.47603e-005   
     length 1.97799   
     axis 0 0 0   XYZ
    dof rx ry rz
    limits (-20.0 45.0)
           (-30.0 30.0)
           (-30.0 30.0)
  end
  begin
     id 14 
     name lowerneck
     direction 0.00312169 0.984641 0.174564   
     length 1.78995   
     axis 0 0 0   XYZ
    dof rx ry rz
    limits (-20.0 45.0)
           (-30.0 30.0)
           (-30.0 30.0)
  end
  begin
     id 15 
     name upperneck
     direction -0.0383028 0.985255 -0.166749   
     length 1.83053   
     axis 0 0 0   XYZ
    dof rx ry rz
    limits (-20.0 45.0)
           (-30.0 30.0)
           (-30.0 30.0)
  end
  begin
     id 16
     name head
     direction -0.0129546 0.997059 -0.0755386  
     length 1.84088  
     axis 0 0 0   XYZ
    dof rx ry rz
    limits (-20.0 45.0)
           (-30.0 30.0)
           (-30.0 30.0)
  end
  begin
     id 17 
     name lclavicle
     direction 0.912857 0.370519 -0.171488  
     length 3.51279  
     axis 0 0 0   XYZ
    dof ry rz
    limits (-20.0 10.0)
           (0.0 20.0)
  end
  begin
     id 18 
     name lhumerus
     direction 1 -4.48962e-011 3.64361e-027   
     length 4.95663   
     axis 180 -30 -90   XYZ
    dof rx ry rz
    limits (-60.0 90.0)
           (-90.0 90.0)
           (-90.0 90.0)
  end
  begin
     id 19
     name lradius
     direction 1 -4.48974e-011 5.97202e-027   
     length 3.38177   
     axis 180 -30 -90   XYZ
    dof rx
    limits (-10.0 170.0)
  end
  begin
     id 20
     name lwrist
     direction 1 -4.4896e-011 9.83288e-027   
     length 1.69088   
     axis -9.31221e-015 90 90   XYZ
    dof ry
    limits (-180.0 0.0)
 end
  begin
     id 21 
     name lhand
     direction 1 -4.4902e-011 1.96551e-026   
     length 0.662909   
     axis -1.25475e-014 90 90   XYZ
    dof rx rz
    limits (-90.0 90.0)
           (-45.0 45.0)
  end
  begin
     id 22 
     name lfingers
     direction 1 -4.48971e-011 3.93277e-026   
     length 0.534454   
     axis -2.50945e-014 90 90   XYZ
    dof rx
    limits (0.0 90.0)
  end
  begin
     id 23
     name lthumb
     direction 0.707107 -6.34933e-011 0.707107   
     length 0.767373   
     axis -90 45 -4.80359e-014   XYZ
    dof rx rz
    limits (-45.0 45.0)
           (-45.0 45.0)
  end
  begin
     id 24 
     name rclavicle
     direction -0.900919 0.395364 -0.178976   
     length 3.40627  
     axis 0 0 0   XYZ 
    dof ry rz
    limits (-10.0 20.0)
           (-20.0 0.0)
  end
  begin
     id 25 
     name rhumerus
     direction -1 -4.48969e-011 1.03875e-027  
     length 5.08365   
     axis 180 30 90   XYZ
    dof rx ry rz
    limits (-90.0 60.0)
           (-90.0 90.0)
           (-90.0 90.0)
  end
  begin
     id 26 
     name rradius
     direction -1 -4.48951e-011 5.02733e-027   
     length 3.35984   
     axis 180 30 90   XYZ
    dof rx
    limits (-10.0 170.0)
  end
  begin
     id 27 
     name rwrist
     direction -1 -4.49011e-011 9.82828e-027   
     length 1.67992   
     axis -9.31221e-015 -90 -90   XYZ
    dof ry
    limits (-180.0 0.0)
  end
  begin
     id 28
     name rhand
     direction -1 -4.48894e-011 1.96774e-026   
     length 0.820764   
     axis -1.25475e-014 -90 -90   XYZ
    dof rx rz
    limits (-90.0 90.0)
           (-45.0 45.0)
  end
  begin
     id 29
     name rfingers
     direction -1 -4.49095e-011 3.92833e-026   
     length 0.661721   
     axis -2.50945e-014 -90 -90   XYZ
    dof rx
    limits (0.0 90.0)
  end
  begin
     id 30
     name rthumb
     direction -0.707107 -6.34881e-011 0.707107   
     length 0.950103   
     axis -90 -45 4.80359e-014   XYZ
    dof rx rz
    limits (-45.0 45.0)
           (-45.0 45.0)
  end
:hierarchy
  begin
    root lhipjoint rhipjoint lowerback
    lhipjoint lfemur
    lfemur ltibia
    ltibia lfoot
    lfoot ltoes
    rhipjoint rfemur
    rfemur rtibia
    rtibia rfoot
    rfoot rtoes
    lowerback upperback
    upperback thorax
    thorax lowerneck lclavicle rclavicle
    lowerneck upperneck
    upperneck head
    lclavicle lhumerus
    lhumerus lradius
    lradius lwrist
    lwrist lhand lthumb
    lhand lfingers
    rclavicle rhumerus
    rhumerus rradius
    rradius rwrist
    rwrist rhand rthumb
    rhand rfingers
  end

#!OML:ASF I:\golf\golf\golf 2\Subject 1\2002-09-07\Subject1.ASF
:FULLY-SPECIFIED
:DEGREES
1
root -6.55144 17.7677 0.227503 -51.5297 85.5261 -68.9849
lowerback 2.84136 1.88427 -1.35726
upperback 3.42004 2.54742 3.85659
thorax 1.69279 1.24324 4.70555
lowerneck -16.2839 -1.29639 2.49875
upperneck 39.292 0.613601 -4.09537
head 17.058 0.570365 -2.02197
rclavicle -4.21423e-014 -3.65764e-014
rhumerus -4.02186 -0.327012 -101.928
rradius 19.016
rwrist -25.3569
rhand -15.5589 -7.68276
rfingers 7.12502
rthumb 10.6257 -37.3941
lclavicle -4.21423e-014 -3.65764e-014
lhumerus -11.6589 -44.5506 111.751
lradius 25.929
lwrist 42.7475
lhand -12.5231 63.2831
lfingers 7.12502
lthumb -166.447 87.1779
rfemur -31.9177 -2.79345 13.7266
rtibia 29.3605
rfoot -6.73053 -11.3031
rtoes -18.7496
lfemur -31.0419 9.76241 -9.40067
ltibia 32.2391
lfoot -12.3026 1.46827
ltoes -23.5088
2
root -6.55019 17.7728 0.227137 -51.5674 85.5062 -69.025
lowerback 2.82781 1.87164 -1.44999
upperback 3.42751 2.53024 3.94594
thorax 1.70239 1.23233 4.85259
lowerneck -16.2623 -1.29403 2.4675
upperneck 39.2344 0.655392 -4.17894
head 17.0237 0.569284 -2.0448
rclavicle -3.65764e-014 -7.71285e-014
rhumerus -4.0419 -0.0841414 -101.828
rradius 19.0116
rwrist -25.6143
rhand -15.5767 -7.60925
rfingers 7.12502
rthumb 10.6085 -37.3215
lclavicle -3.65764e-014 -7.71285e-014
lhumerus -11.5568 -44.393 111.771
lradius 25.8743
lwrist 42.6923
lhand -12.5982 63.2448
lfingers 7.12502
lthumb -166.52 87.2115
rfemur -31.9023 -2.71347 13.6977
rtibia 29.3265
rfoot -6.86237 -11.2641
rtoes -17.2956
lfemur -31.0024 9.78055 -9.37948
ltibia 32.1566
lfoot -12.2679 1.40436
ltoes -23.072
3
root -6.54967 17.7742 0.226851 -51.7818 85.4816 -69.2285
lowerback 2.85218 1.8835 -1.46138
upperback 3.42805 2.5468 3.98531
thorax 1.68567 1.24075 4.89894
lowerneck -16.2572 -1.28375 2.48177
upperneck 39.1997 0.683705 -4.23141
head 17.0053 0.574832 -2.06489
rclavicle 1.82882e-014 3.26007e-014
rhumerus -4.04294 -0.179434 -101.787
rradius 18.9921
rwrist -25.5795
rhand -15.5543 -7.51728
rfingers 7.12502
rthumb 10.6301 -37.2284
lclavicle 1.82882e-014 3.26007e-014
lhumerus -11.5586 -44.5453 111.798
lradius 25.879
lwrist 42.8102
lhand -12.6609 63.4434
lfingers 7.12502
lthumb -166.58 87.0089
rfemur -31.8515 -2.55447 13.6264
rtibia 29.2826
rfoot -7.1877 -11.2519
rtoes -14.5053
lfemur -30.9884 9.78446 -9.34337
ltibia 32.1477
lfoot -12.2441 1.36246
ltoes -22.8936
4
root -6.54864 17.7718 0.22531 -51.5642 85.5348 -69.0149
lowerback 2.85084 1.89386 -1.47686
upperback 3.4147 2.55984 3.95656
thorax 1.67194 1.24722 4.87703
lowerneck -16.2621 -1.29314 2.51455
upperneck 39.2332 0.666736 -4.23972
head 17.0238 0.573366 -2.07841
rclavicle -2.10712e-014 -4.77083e-014
rhumerus -4.08157 -0.315047 -101.801
rradius 19.0051
rwrist -25.5337
rhand -15.4207 -7.45994
rfingers 7.12502
rthumb 10.759 -37.1644
lclavicle -2.10712e-014 -4.77083e-014
lhumerus -11.5824 -44.6847 111.8
lradius 25.8394
lwrist 42.8897
lhand -12.7211 63.6917
lfingers 7.12502
lthumb -166.638 86.7568
rfemur -31.795 -2.3509 13.3942
rtibia 29.2588
rfoot -7.71853 -11.1043
rtoes -9.9931
lfemur -30.9932 9.8504 -9.43598
ltibia 32.1272
lfoot -12.2281 1.29056
ltoes -23.2995
5
root -6.54683 17.7713 0.223356 -51.1212 85.6292 -68.5864
lowerback 2.82229 1.89653 -1.53493
upperback 3.39926 2.5615 3.92227
thorax 1.6709 1.24674 4.87473
lowerneck -16.225 -1.32516 2.50254
upperneck 39.2362 0.619478 -4.22526
head 17.013 0.55552 -2.07785
rclavicle 3.61788e-014 3.4191e-014
rhumerus -4.16218 -0.0737042 -101.787
rradius 19.0893
rwrist -25.8703
rhand -15.4123 -7.54341
rfingers 7.12502
rthumb 10.7671 -37.2475
lclavicle 3.61788e-014 3.4191e-014
lhumerus -11.6001 -44.7241 111.807
lradius 25.7929
lwrist 42.9177
lhand -12.8365 63.7803
lfingers 7.12502
lthumb -166.749 86.6609
rfemur -31.7716 -2.32125 13.2127
rtibia 29.2414
rfoot -7.99429 -11.0109
rtoes -7.76267
lfemur -31.0136 9.90023 -9.58176
ltibia 32.1212
lfoot -12.2346 1.22563
ltoes -23.4024
6
root -6.54472 17.772 0.222962 -50.8882 85.6605 -68.3384
lowerback 2.81567 1.89048 -1.59854
upperback 3.40592 2.55263 3.9455
thorax 1.67887 1.24068 4.93577
lowerneck -16.1805 -1.31345 2.4303
upperneck 39.2044 0.650057 -4.19618
head 16.9861 0.560931 -2.04459
rclavicle -1.19271e-014 -7.95139e-015
rhumerus -4.19943 0.0631865 -101.753
rradius 19.1208
rwrist -25.977
rhand -15.3257 -7.61689
rfingers 7.12502
rthumb 10.8506 -37.3166
lclavicle -1.19271e-014 -7.95139e-015
lhumerus -11.5715 -44.6412 111.808
lradius 25.7589
lwrist 42.8537
lhand -12.9375 63.9492
lfingers 7.12502
lthumb -166.847 86.4857
rfemur -31.7561 -2.33251 13.1743
rtibia 29.2574
rfoot -8.06237 -11.0854
rtoes -7.52708
lfemur -30.925 9.82449 -9.58017
ltibia 32.0987
lfoot -12.283 1.17281
ltoes -22.7128
7
root -6.54289 17.7727 0.222657 -50.7636 85.7092 -68.2023
lowerback 2.80453 1.88006 -1.65914
upperback 3.42304 2.5378 3.95793
thorax 1.70138 1.23136 4.98443
lowerneck -16.196 -1.27116 2.38604
upperneck 39.214 0.717783 -4.16175
head 16.9994 0.586819 -2.00893
rclavicle -1.59028e-015 1.59028e-015
rhumerus -4.18874 -0.167932 -101.753
rradius 19.1064
rwrist -25.7118
rhand -14.9732 -7.53355
rfingers 7.12502
rthumb 11.1906 -37.2151
lclavicle -1.59028e-015 1.59028e-015
lhumerus -11.5075 -44.5029 111.786
lradius 25.6981
lwrist 42.6404
lhand -12.9219 64.0303
lfingers 7.12502
lthumb -166.832 86.4055
rfemur -31.7618 -2.35331 13.123
rtibia 29.3117
rfoot -8.15067 -11.1055
rtoes -7.09745
lfemur -30.8292 9.71004 -9.58706
ltibia 32.0479
lfoot -12.3282 1.1709
ltoes -22.475
8
root -6.54204 17.7698 0.222011 -50.7176 85.7658 -68.1231
lowerback 2.86054 1.8794 -1.68148
upperback 3.42858 2.53669 3.94373
thorax 1.67555 1.23088 4.98027
lowerneck -16.2255 -1.25842 2.35925
upperneck 39.2601 0.739761 -4.12927
head 17.0334 0.597731 -1.98667
rclavicle 4.45278e-014 7.63333e-014
rhumerus -4.19267 -0.422901 -101.765
rradius 19.0877
rwrist -25.5114
rhand -14.6972 -7.39995
rfingers 7.12502
rthumb 11.4567 -37.0669
lclavicle 4.45278e-014 7.63333e-014
lhumerus -11.4972 -44.4458 111.769
lradius 25.6487
lwrist 42.4332
lhand -12.7998 63.7526
lfingers 7.12502
lthumb -166.714 86.6909
rfemur -31.7504 -2.39851 13.0704
rtibia 29.3684
rfoot -8.18594 -11.0736
rtoes -7.26428
lfemur -30.8186 9.72798 -9.6808
ltibia 31.9975
lfoot -12.2873 1.28679
ltoes -23.4108
9
root -6.54175 17.7656 0.221294 -50.6924 85.7817 -68.0554
lowerback 2.93005 1.89271 -1.65969
upperback 3.43376 2.55523 3.93667
thorax 1.64131 1.24143 4.95755
lowerneck -16.2289 -1.27412 2.30304
upperneck 39.277 0.718515 -4.07966
head 17.0422 0.5884 -1.95832
rclavicle -2.3059e-014 -3.33958e-014
rhumerus -4.19957 -0.507778 -101.753
rradius 19.0693
rwrist -25.5088
rhand -14.5499 -7.27931
rfingers 7.12502
rthumb 11.5988 -36.9383
lclavicle -2.3059e-014 -3.33958e-014
lhumerus -11.5075 -44.3946 111.776
lradius 25.6117
lwrist 42.2318
lhand -12.7476 63.6015
lfingers 7.12502
lthumb -166.663 86.8452
rfemur -31.7253 -2.42467 13.0535
rtibia 29.4159
rfoot -8.21603 -11.0223
rtoes -7.3207
lfemur -30.8071 9.82909 -9.7407
ltibia 31.9543
lfoot -12.2473 1.28267
ltoes -23.862
10
root -6.54124 17.7645 0.219725 -50.6566 85.7836 -68.0261
lowerback 2.89858 1.89181 -1.62042
upperback 3.45065 2.55434 3.9222
thorax 1.67862 1.24103 4.92187
lowerneck -16.2186 -1.27179 2.31396
upperneck 39.2537 0.71365 -4.07623
head 17.0265 0.587693 -1.95905
rclavicle 2.82274e-014 -3.97569e-015
rhumerus -4.21551 -0.302595 -101.753
rradius 19.1265
rwrist -25.8497
rhand -14.4676 -7.15795
rfingers 7.12502
rthumb 11.6782 -36.8125
lclavicle 2.82274e-014 -3.97569e-015
lhumerus -11.4874 -44.3202 111.731
lradius 25.6052
lwrist 42.0803
lhand -12.8805 63.7567
lfingers 7.12502
lthumb -166.792 86.6818
rfemur -31.7432 -2.38884 13.0352
rtibia 29.4535
rfoot -8.18457 -11.0452
rtoes -7.42241
lfemur -30.8002 9.88545 -9.76189
ltibia 31.9185
lfoot -12.2151 1.18184
ltoes -23.6347
11
root -6.53957 17.7648 0.218097 -50.5614 85.7722 -67.9349
lowerback 2.88371 1.88943 -1.59619
upperback 3.45404 2.55135 3.91418
thorax 1.69203 1.23978 4.90049
lowerneck -16.2024 -1.2705 2.3271
upperneck 39.2577 0.712938 -4.07734
head 17.0244 0.589606 -1.96195
rclavicle -2.82274e-014 2.54444e-014
rhumerus -4.2583 -0.123983 -101.771
rradius 19.1662
rwrist -26.138
rhand -14.4957 -6.9918
rfingers 7.12502
rthumb 11.6511 -36.6479
lclavicle -2.82274e-014 2.54444e-014
lhumerus -11.4876 -44.2454 111.684
lradius 25.6114
lwrist 41.9842
lhand -12.9885 63.9703
lfingers 7.12502
lthumb -166.896 86.4615
rfemur -31.7418 -2.27566 13.0001
rtibia 29.461
rfoot -8.09962 -11.1439
rtoes -7.85233
lfemur -30.7867 9.89459 -9.76289
ltibia 31.9067
lfoot -12.194 1.18839
ltoes -23.8772
